<?xml version="1.0" encoding="UTF-8"?>
<svg version="1.1" xmlns="http://www.w3.org/2000/svg" width="1024" height="1024">
<path d="M0 0 C1.05726288 0.00182281 2.11452576 0.00364563 3.2038269 0.00552368 C48.04787873 0.13561699 90.05551463 9.93176857 130.5 29.3125 C131.10279785 29.59955811 131.7055957 29.88661621 132.32666016 30.18237305 C144.11031926 35.81978635 155.16707368 42.42869704 165.8125 50 C166.51834229 50.50055908 167.22418457 51.00111816 167.95141602 51.5168457 C178.72422683 59.24899206 188.96480661 67.67981191 198.6796875 76.703125 C200.41699923 78.37824717 200.41699923 78.37824717 202.5 79.3125 C202.5 79.9725 202.5 80.6325 202.5 81.3125 C203.08136719 81.56773437 203.66273438 81.82296875 204.26171875 82.0859375 C210.3336583 85.41331799 215.00940495 91.73703186 219.47265625 96.94921875 C221.02650604 98.76054654 222.59691816 100.5498516 224.18359375 102.33203125 C257.83002427 140.42043711 281.25026529 189.52783455 289.09423828 239.73876953 C289.36330224 241.44543156 289.64798897 243.14970852 289.94873047 244.85107422 C302.28472345 315.08257784 284.47720227 394.55530969 244.5 453.3125 C240.36777779 459.13716126 235.98767275 464.7588116 231.5 470.3125 C231.03094238 470.89338379 230.56188477 471.47426758 230.07861328 472.07275391 C216.38481618 488.89289863 201.39811605 503.79102661 184.19775391 517.00439453 C182.65936504 518.18971054 181.13176309 519.38899408 179.60546875 520.58984375 C145.10296486 547.2749971 104.28703958 564.24291912 61.6875 572.625 C59.84841064 572.98899902 59.84841064 572.98899902 57.97216797 573.36035156 C40.36264736 576.6649119 22.95864301 577.69434621 5.0625 577.625 C4.05664856 577.62284485 3.05079712 577.6206897 2.01446533 577.61846924 C-62.95280271 577.39591251 -62.95280271 577.39591251 -79.5 565.3125 C-80.77563581 561.26048037 -80.89628327 559.21829033 -79.1875 555.3125 C-75.54220077 552.59971917 -73.56833741 553.36830668 -69.21801758 553.90332031 C-65.11228073 554.52141202 -61.06380794 555.34188906 -57 556.1875 C-17.72782487 563.78744157 29.93831478 567.16639507 68.5 554.3125 C70.28923178 554.02725243 72.08137992 553.76011622 73.875 553.50390625 C80.66076038 552.39571491 87.00131042 550.46327393 93.5 548.25 C95.2644043 547.65336548 95.2644043 547.65336548 97.06445312 547.04467773 C123.8330062 537.80341339 148.93724304 524.41302144 171.5 507.3125 C172.04124512 506.90273926 172.58249023 506.49297852 173.14013672 506.07080078 C181.6767271 499.57624951 189.76413033 492.74230163 197.5 485.3125 C198.26207764 484.58329346 198.26207764 484.58329346 199.03955078 483.83935547 C206.0761775 477.06734649 212.51220886 470.0454765 218.5 462.3125 C218.94811035 461.74611816 219.3962207 461.17973633 219.85791016 460.59619141 C239.31820698 437.39872814 239.31820698 437.39872814 249.5 410.3125 C250.16 410.3125 250.82 410.3125 251.5 410.3125 C251.78520508 409.4366626 252.07041016 408.5608252 252.36425781 407.65844727 C253.38397087 404.654327 254.4922698 401.72148022 255.671875 398.77734375 C280.35389926 336.47455659 285.48342067 268.52079013 264.5 204.3125 C264.21286133 203.43319824 263.92572266 202.55389648 263.62988281 201.64794922 C252.47069263 168.11609072 234.79043926 137.82237098 211.5 111.3125 C210.73816406 110.43851562 209.97632813 109.56453125 209.19140625 108.6640625 C192.41194417 89.70117666 173.00178903 72.720919 151.5 59.3125 C150.90541992 58.93818848 150.31083984 58.56387695 149.69824219 58.17822266 C145.3545044 55.45719972 140.9527343 52.85092441 136.5 50.3125 C135.80487305 49.91562988 135.10974609 49.51875977 134.39355469 49.10986328 C83.52707449 20.42207881 27.01255786 12.87810081 -30.5 16.3125 C-30.83 16.9725 -31.16 17.6325 -31.5 18.3125 C-33.04880859 18.24095703 -33.04880859 18.24095703 -34.62890625 18.16796875 C-71.71857131 18.25726319 -113.95439634 36.83514939 -144.5 56.3125 C-145.14759277 56.7235498 -145.79518555 57.13459961 -146.46240234 57.55810547 C-154.94303404 62.98105123 -163.0953302 68.77795322 -170.95117188 75.07226562 C-172.42304408 76.25087704 -173.90654291 77.41492552 -175.390625 78.578125 C-183.14936449 84.87448427 -190.23433317 91.83542502 -197.3125 98.875 C-197.80659363 99.3638266 -198.30068726 99.8526532 -198.80975342 100.35629272 C-213.96092712 115.38251284 -226.82356076 132.84226012 -237.5 151.3125 C-237.88220703 151.96621582 -238.26441406 152.61993164 -238.65820312 153.29345703 C-247.1408115 167.86243774 -254.37198893 182.93252533 -260.0625 198.8125 C-260.31418945 199.5125415 -260.56587891 200.21258301 -260.82519531 200.93383789 C-261.97955206 204.28853149 -262.5 206.71540003 -262.5 210.3125 C-263.16 210.3125 -263.82 210.3125 -264.5 210.3125 C-265.54169883 214.97050291 -266.52689654 219.63978453 -267.5 224.3125 C-267.69819336 225.25641602 -267.89638672 226.20033203 -268.10058594 227.17285156 C-271.76193976 244.77744321 -274.29223079 261.99799135 -274.6953125 279.98828125 C-274.7272168 281.30530029 -274.75912109 282.62231934 -274.79199219 283.97924805 C-274.84643613 286.57542343 -274.8816084 289.17208984 -274.89550781 291.76879883 C-274.91709961 292.95111084 -274.93869141 294.13342285 -274.9609375 295.3515625 C-274.96915527 296.40553223 -274.97737305 297.45950195 -274.98583984 298.54541016 C-275.6300166 302.01221898 -276.69444409 303.22663834 -279.5 305.3125 C-283.15336951 305.3125 -285.49277394 305.28291182 -288.18994141 302.68432617 C-289.96795686 299.46527657 -289.88845708 297.03346224 -289.8984375 293.36328125 C-289.90464615 292.34135429 -289.90464615 292.34135429 -289.91098022 291.29878235 C-289.91717992 289.07373683 -289.89819051 286.84992168 -289.875 284.625 C-289.87101196 283.86362732 -289.86702393 283.10225464 -289.86291504 282.31781006 C-289.77804508 268.49525001 -288.75487214 254.96322379 -286.5 241.3125 C-286.36078125 240.45624023 -286.2215625 239.59998047 -286.078125 238.71777344 C-281.17239482 209.56728877 -271.55160073 181.31793433 -257.5 155.3125 C-257.16178223 154.67618652 -256.82356445 154.03987305 -256.47509766 153.38427734 C-244.97431156 131.83301369 -230.55269771 112.64253152 -214.5 94.3125 C-213.68144531 93.36890625 -212.86289062 92.4253125 -212.01953125 91.453125 C-208.12242079 87.02611484 -204.15111094 82.9407982 -199.640625 79.140625 C-197.15232957 77.01558438 -194.77132626 74.79066301 -192.375 72.5625 C-177.8536048 59.35760491 -161.71601258 47.68139836 -144.74609375 37.8359375 C-144.00488281 37.33320313 -143.26367188 36.83046875 -142.5 36.3125 C-142.5 35.6525 -142.5 34.9925 -142.5 34.3125 C-141.72785156 34.25191406 -140.95570313 34.19132812 -140.16015625 34.12890625 C-134.99926422 32.97775744 -130.64427472 30.61379276 -125.9375 28.25 C-102.69131888 16.90932248 -78.82088448 9.69387688 -53.5 4.5 C-52.55930664 4.30510986 -51.61861328 4.11021973 -50.64941406 3.90942383 C-33.79462248 0.61824293 -17.12800639 -0.061292 0 0 Z " fill="#FEA931" transform="translate(502.5,213.6875)"/>
<path d="M0 0 C6.17729441 0.81300185 9.52826057 6.73636425 13.17578125 11.41796875 C18.16980733 17.99706366 22.97956768 24.76642717 26.17578125 32.41796875 C26.47226562 33.02898438 26.76875 33.64 27.07421875 34.26953125 C31.33487032 44.3934648 30.23256242 58.10133231 27.17578125 68.41796875 C27.96082031 68.70929688 28.74585938 69.000625 29.5546875 69.30078125 C40.10341668 73.41672711 46.86784349 78.24442137 52.17578125 88.41796875 C56.60219341 98.69737771 57.50294776 108.60868712 53.61328125 119.23046875 C53.13890625 120.28234375 52.66453125 121.33421875 52.17578125 122.41796875 C54.48578125 122.74796875 56.79578125 123.07796875 59.17578125 123.41796875 C64.07798457 114.33683802 67.3939229 105.20103522 69.57104492 95.1237793 C72.23621595 82.86941784 77.01721066 70.39134765 86.17578125 61.41796875 C91.3482529 59.99085735 91.3482529 59.99085735 94.11328125 61.41796875 C95.41714656 63.87230344 95.46170269 65.69008511 94.94921875 68.40625 C93.64985657 71.78590415 91.28103823 74.29473519 89.01171875 77.078125 C82.97432645 84.77258881 81.13496121 93.22665893 79.0546875 102.58789062 C77.68081561 108.65798497 75.89897056 114.20790642 73.3125 119.88671875 C71.62666941 123.64073327 70.41722838 127.4976094 69.17578125 131.41796875 C69.79453125 131.66546875 70.41328125 131.91296875 71.05078125 132.16796875 C73.52646812 133.62425514 74.12703127 134.79609381 75.17578125 137.41796875 C76.69945312 136.60392578 76.69945312 136.60392578 78.25390625 135.7734375 C91.45952075 128.84915129 103.56315549 123.92218586 118.65625 128.10546875 C124.5095665 130.30168801 130.00528197 133.34541914 135.55834961 136.19995117 C142.10139236 139.5055469 148.855177 142.19265535 155.70068359 144.80371094 C156.5148877 145.11727539 157.3290918 145.43083984 158.16796875 145.75390625 C158.8935498 146.0276709 159.61913086 146.30143555 160.36669922 146.58349609 C162.17578125 147.41796875 162.17578125 147.41796875 164.17578125 149.41796875 C163.98828125 152.41796875 163.98828125 152.41796875 163.17578125 155.41796875 C160.17578125 157.41796875 160.17578125 157.41796875 157.046875 157.265625 C152.4982253 156.26960383 148.49551645 154.70940487 144.23828125 152.85546875 C143.41287842 152.50339355 142.58747559 152.15131836 141.73706055 151.78857422 C135.56433464 149.11867935 129.53171284 146.21004693 123.60375977 143.03295898 C114.02253712 138.0122591 105.36749736 137.44358932 95.04296875 140.41796875 C90.53138051 141.99149271 86.35818125 144.1226386 82.17578125 146.41796875 C82.17578125 148.72796875 82.17578125 151.03796875 82.17578125 153.41796875 C83.25214844 153.44375 84.32851563 153.46953125 85.4375 153.49609375 C101.98393891 154.05976574 114.11349091 158.96976351 128.17578125 167.41796875 C128.17578125 168.07796875 128.17578125 168.73796875 128.17578125 169.41796875 C128.73523438 169.64613281 129.2946875 169.87429688 129.87109375 170.109375 C141.0457706 176.45431863 147.8550222 190.5374152 151.48046875 202.3125 C153.9690217 213.42710445 151.82852514 222.86822108 146.36328125 232.66796875 C139.86951881 240.83155581 131.81641381 247.53412135 121.17578125 249.41796875 C106.28544354 250.69548014 92.76639768 246.18240383 81.0703125 236.97265625 C74.37022051 231.26467133 69.41284254 225.18988174 65.17578125 217.41796875 C64.58023438 216.38736328 64.58023438 216.38736328 63.97265625 215.3359375 C57.80191213 204.03058167 56.98737032 191.68919904 57.30273438 179.09375 C57.31916992 177.86978516 57.31916992 177.86978516 57.3359375 176.62109375 C57.35277588 175.88536133 57.36961426 175.14962891 57.38696289 174.39160156 C57.2953503 172.09571034 57.2953503 172.09571034 55.17578125 169.41796875 C52.73449529 168.88641992 52.73449529 168.88641992 50.17578125 169.41796875 C47.36272095 171.63619692 45.34459492 174.58005299 43.17578125 177.41796875 C42.54929687 178.20042969 41.9228125 178.98289062 41.27734375 179.7890625 C34.91029656 188.18443064 32.29547133 196.37104212 33.5234375 206.8984375 C35.16692721 215.76540892 37.67678189 224.46864105 40.2890625 233.09375 C42.45600912 241.21741333 43.36283501 250.45033435 40.17578125 258.41796875 C38.36328125 261.04296875 38.36328125 261.04296875 36.17578125 262.41796875 C33.55078125 262.35546875 33.55078125 262.35546875 31.17578125 261.41796875 C29.17578125 258.41796875 29.17578125 258.41796875 29.53125 255.6328125 C29.74394531 254.57191406 29.95664062 253.51101563 30.17578125 252.41796875 C31.04771037 240.99712662 28.63485241 231.35114616 25.27734375 220.51953125 C21.50888076 207.79630473 20.76809143 195.11778615 26.36328125 182.8046875 C29.84946967 176.59491438 34.46380356 171.25463615 39.1015625 165.88671875 C41.17517987 163.61330745 41.17517987 163.61330745 42.17578125 161.41796875 C37.09201905 161.85058004 32.00874896 162.28863754 26.92578125 162.73046875 C25.78196991 162.82976181 25.78196991 162.82976181 24.61505127 162.93106079 C12.76141687 163.96479171 0.93262569 165.1359981 -10.88769531 166.50317383 C-26.68865277 168.28634273 -26.68865277 168.28634273 -29.94921875 165.79296875 C-30.82421875 163.41796875 -30.82421875 163.41796875 -30.51171875 160.29296875 C-28.82421875 157.41796875 -28.82421875 157.41796875 -25.56054688 156.31884766 C-19.5677485 155.0111909 -13.4579774 154.62135901 -7.35546875 154.12890625 C-6.07941772 154.02075592 -4.8033667 153.91260559 -3.48864746 153.80117798 C-0.12222103 153.51703294 3.24457299 153.23853255 6.61169434 152.96282959 C10.05793818 152.67922628 13.50354681 152.38811099 16.94921875 152.09765625 C23.69084619 151.5308873 30.43305963 150.9715601 37.17578125 150.41796875 C37.17578125 147.11796875 37.17578125 143.81796875 37.17578125 140.41796875 C36.51578125 140.08796875 35.85578125 139.75796875 35.17578125 139.41796875 C35.17578125 138.75796875 35.17578125 138.09796875 35.17578125 137.41796875 C34.47453125 137.72992187 33.77328125 138.041875 33.05078125 138.36328125 C23.24494534 141.96053084 13.55249915 140.53973983 4.17578125 136.41796875 C1.15786937 134.71568568 -1.31494685 132.80011895 -3.82421875 130.41796875 C-4.45070312 129.83144531 -5.0771875 129.24492188 -5.72265625 128.640625 C-13.3324682 120.78999622 -15.38206994 111.99052069 -15.31030273 101.27832031 C-15.10873455 96.13740697 -14.00088771 92.00496405 -11.69921875 87.43359375 C-10.55874807 85.17266392 -10.55874807 85.17266392 -10.82421875 81.41796875 C-12.88496802 79.5065178 -12.88496802 79.5065178 -15.63671875 77.79296875 C-31.34006865 66.84698801 -44.28740709 52.29559097 -48.55078125 33.15625 C-48.82421875 30.41796875 -48.82421875 30.41796875 -47.69921875 28.04296875 C-45.82421875 26.41796875 -45.82421875 26.41796875 -43.32421875 25.91796875 C-40.82421875 26.41796875 -40.82421875 26.41796875 -39.3046875 28.0390625 C-37.50918504 30.92418387 -36.64120032 33.73494167 -35.63671875 36.98046875 C-30.594645 51.48960037 -18.43526632 65.12562647 -4.82421875 72.41796875 C-0.88073258 72.84226789 1.69522931 72.52298192 5.11328125 70.54296875 C8.75136305 68.56620754 12.16401347 67.4209107 16.17578125 66.41796875 C19.89356743 55.03224857 19.44119888 43.18134611 14.17578125 32.41796875 C13.79808594 31.62390625 13.42039062 30.82984375 13.03125 30.01171875 C9.55001263 23.53304136 4.73579537 18.50177554 -0.50561523 13.41479492 C-4.7071585 9.17795991 -4.7071585 9.17795991 -5.33203125 5.12109375 C-4.62634684 1.36468137 -3.78214608 0.55973669 0 0 Z " fill="#FEA931" transform="translate(250.82421875,530.58203125)"/>
<path d="M0 0 C1.05726288 0.00182281 2.11452576 0.00364563 3.2038269 0.00552368 C48.04787873 0.13561699 90.05551463 9.93176857 130.5 29.3125 C131.10279785 29.59955811 131.7055957 29.88661621 132.32666016 30.18237305 C144.11031926 35.81978635 155.16707368 42.42869704 165.8125 50 C166.51834229 50.50055908 167.22418457 51.00111816 167.95141602 51.5168457 C178.72422683 59.24899206 188.96480661 67.67981191 198.6796875 76.703125 C200.41699923 78.37824717 200.41699923 78.37824717 202.5 79.3125 C202.5 79.9725 202.5 80.6325 202.5 81.3125 C203.08136719 81.56773437 203.66273438 81.82296875 204.26171875 82.0859375 C210.3336583 85.41331799 215.00940495 91.73703186 219.47265625 96.94921875 C221.02650604 98.76054654 222.59691816 100.5498516 224.18359375 102.33203125 C257.83002427 140.42043711 281.25026529 189.52783455 289.09423828 239.73876953 C289.36330224 241.44543156 289.64798897 243.14970852 289.94873047 244.85107422 C302.28472345 315.08257784 284.47720227 394.55530969 244.5 453.3125 C240.36777779 459.13716126 235.98767275 464.7588116 231.5 470.3125 C231.03094238 470.89338379 230.56188477 471.47426758 230.07861328 472.07275391 C216.38481618 488.89289863 201.39811605 503.79102661 184.19775391 517.00439453 C182.65936504 518.18971054 181.13176309 519.38899408 179.60546875 520.58984375 C145.10296486 547.2749971 104.28703958 564.24291912 61.6875 572.625 C59.84841064 572.98899902 59.84841064 572.98899902 57.97216797 573.36035156 C40.36264736 576.6649119 22.95864301 577.69434621 5.0625 577.625 C4.05664856 577.62284485 3.05079712 577.6206897 2.01446533 577.61846924 C-62.95280271 577.39591251 -62.95280271 577.39591251 -79.5 565.3125 C-80.77563581 561.26048037 -80.89628327 559.21829033 -79.1875 555.3125 C-75.54220077 552.59971917 -73.56833741 553.36830668 -69.21801758 553.90332031 C-65.11228073 554.52141202 -61.06380794 555.34188906 -57 556.1875 C-17.72782487 563.78744157 29.93831478 567.16639507 68.5 554.3125 C70.28923178 554.02725243 72.08137992 553.76011622 73.875 553.50390625 C80.66076038 552.39571491 87.00131042 550.46327393 93.5 548.25 C95.2644043 547.65336548 95.2644043 547.65336548 97.06445312 547.04467773 C123.8330062 537.80341339 148.93724304 524.41302144 171.5 507.3125 C172.04124512 506.90273926 172.58249023 506.49297852 173.14013672 506.07080078 C181.6767271 499.57624951 189.76413033 492.74230163 197.5 485.3125 C198.26207764 484.58329346 198.26207764 484.58329346 199.03955078 483.83935547 C206.0761775 477.06734649 212.51220886 470.0454765 218.5 462.3125 C218.94811035 461.74611816 219.3962207 461.17973633 219.85791016 460.59619141 C239.31820698 437.39872814 239.31820698 437.39872814 249.5 410.3125 C250.16 410.3125 250.82 410.3125 251.5 410.3125 C251.78520508 409.4366626 252.07041016 408.5608252 252.36425781 407.65844727 C253.38397087 404.654327 254.4922698 401.72148022 255.671875 398.77734375 C280.35389926 336.47455659 285.48342067 268.52079013 264.5 204.3125 C264.21286133 203.43319824 263.92572266 202.55389648 263.62988281 201.64794922 C252.47069263 168.11609072 234.79043926 137.82237098 211.5 111.3125 C210.73816406 110.43851562 209.97632813 109.56453125 209.19140625 108.6640625 C192.41194417 89.70117666 173.00178903 72.720919 151.5 59.3125 C150.90541992 58.93818848 150.31083984 58.56387695 149.69824219 58.17822266 C145.3545044 55.45719972 140.9527343 52.85092441 136.5 50.3125 C135.80487305 49.91562988 135.10974609 49.51875977 134.39355469 49.10986328 C83.52707449 20.42207881 27.01255786 12.87810081 -30.5 16.3125 C-30.83 16.9725 -31.16 17.6325 -31.5 18.3125 C-33.04880859 18.24095703 -33.04880859 18.24095703 -34.62890625 18.16796875 C-71.71857131 18.25726319 -113.95439634 36.83514939 -144.5 56.3125 C-145.14759277 56.7235498 -145.79518555 57.13459961 -146.46240234 57.55810547 C-154.94303404 62.98105123 -163.0953302 68.77795322 -170.95117188 75.07226562 C-172.42304408 76.25087704 -173.90654291 77.41492552 -175.390625 78.578125 C-183.14936449 84.87448427 -190.23433317 91.83542502 -197.3125 98.875 C-197.80659363 99.3638266 -198.30068726 99.8526532 -198.80975342 100.35629272 C-213.96092712 115.38251284 -226.82356076 132.84226012 -237.5 151.3125 C-237.88220703 151.96621582 -238.26441406 152.61993164 -238.65820312 153.29345703 C-247.1408115 167.86243774 -254.37198893 182.93252533 -260.0625 198.8125 C-260.31418945 199.5125415 -260.56587891 200.21258301 -260.82519531 200.93383789 C-261.97955206 204.28853149 -262.5 206.71540003 -262.5 210.3125 C-263.16 210.3125 -263.82 210.3125 -264.5 210.3125 C-265.54169883 214.97050291 -266.52689654 219.63978453 -267.5 224.3125 C-267.69819336 225.25641602 -267.89638672 226.20033203 -268.10058594 227.17285156 C-271.76193976 244.77744321 -274.29223079 261.99799135 -274.6953125 279.98828125 C-274.7272168 281.30530029 -274.75912109 282.62231934 -274.79199219 283.97924805 C-274.84643613 286.57542343 -274.8816084 289.17208984 -274.89550781 291.76879883 C-274.91709961 292.95111084 -274.93869141 294.13342285 -274.9609375 295.3515625 C-274.96915527 296.40553223 -274.97737305 297.45950195 -274.98583984 298.54541016 C-275.6300166 302.01221898 -276.69444409 303.22663834 -279.5 305.3125 C-283.15336951 305.3125 -285.49277394 305.28291182 -288.18994141 302.68432617 C-289.96795686 299.46527657 -289.88845708 297.03346224 -289.8984375 293.36328125 C-289.90464615 292.34135429 -289.90464615 292.34135429 -289.91098022 291.29878235 C-289.91717992 289.07373683 -289.89819051 286.84992168 -289.875 284.625 C-289.87101196 283.86362732 -289.86702393 283.10225464 -289.86291504 282.31781006 C-289.77804508 268.49525001 -288.75487214 254.96322379 -286.5 241.3125 C-286.36078125 240.45624023 -286.2215625 239.59998047 -286.078125 238.71777344 C-281.17239482 209.56728877 -271.55160073 181.31793433 -257.5 155.3125 C-257.16178223 154.67618652 -256.82356445 154.03987305 -256.47509766 153.38427734 C-244.97431156 131.83301369 -230.55269771 112.64253152 -214.5 94.3125 C-213.68144531 93.36890625 -212.86289062 92.4253125 -212.01953125 91.453125 C-208.12242079 87.02611484 -204.15111094 82.9407982 -199.640625 79.140625 C-197.15232957 77.01558438 -194.77132626 74.79066301 -192.375 72.5625 C-177.8536048 59.35760491 -161.71601258 47.68139836 -144.74609375 37.8359375 C-144.00488281 37.33320313 -143.26367188 36.83046875 -142.5 36.3125 C-142.5 35.6525 -142.5 34.9925 -142.5 34.3125 C-141.72785156 34.25191406 -140.95570313 34.19132812 -140.16015625 34.12890625 C-134.99926422 32.97775744 -130.64427472 30.61379276 -125.9375 28.25 C-102.69131888 16.90932248 -78.82088448 9.69387688 -53.5 4.5 C-52.55930664 4.30510986 -51.61861328 4.11021973 -50.64941406 3.90942383 C-33.79462248 0.61824293 -17.12800639 -0.061292 0 0 Z M-40.375 4.625 C-41.11118561 4.73169006 -41.84737122 4.83838013 -42.60586548 4.94830322 C-51.37167899 6.24861428 -59.93689519 8.03243485 -68.5 10.3125 C-69.98217124 10.67299845 -71.46518523 11.03005875 -72.94921875 11.3828125 C-82.34082718 13.68879268 -91.45632218 16.55543277 -100.5625 19.8125 C-101.59656982 20.18004395 -102.63063965 20.54758789 -103.69604492 20.92626953 C-110.21565512 23.30650311 -116.34656292 26.11353432 -122.5 29.3125 C-123.76727997 29.93429698 -125.03665408 30.5518538 -126.30859375 31.1640625 C-152.17003033 43.63365728 -152.17003033 43.63365728 -174.5 61.3125 C-175.85715755 62.39769797 -177.23300917 63.45985925 -178.625 64.5 C-182.9873761 67.84520466 -187.0574034 71.43647753 -191.11328125 75.14453125 C-193.12727646 76.9739377 -195.17378559 78.74252213 -197.25 80.5 C-207.65821763 89.62558879 -216.8608818 99.52965224 -225.17333984 110.58007812 C-226.49556563 112.30670937 -227.85701875 113.99221276 -229.23828125 115.671875 C-236.61183504 124.68283748 -242.62571816 134.27419942 -248.5 144.3125 C-249.22853817 145.53292748 -249.95766211 146.75300557 -250.6875 147.97265625 C-257.62203482 159.76949185 -263.33271877 172.14111543 -268.48046875 184.8125 C-269.32023195 186.87168944 -270.21532521 188.90822546 -271.125 190.9375 C-274.84387549 200.06564894 -277.01094331 209.79260191 -279.5 219.3125 C-279.79261719 220.405625 -280.08523438 221.49875 -280.38671875 222.625 C-281.93516129 228.54684854 -282.91075081 234.22359172 -283.5 240.3125 C-283.995 241.3025 -283.995 241.3025 -284.5 242.3125 C-287.31997808 261.84650873 -286.70495759 281.63341815 -286.5 301.3125 C-283.79120665 302.66689668 -281.49066732 302.37751451 -278.5 302.3125 C-277.31335325 298.54990321 -277.31262347 294.80512046 -277.25390625 290.8984375 C-277.22271771 289.40917153 -277.19112709 287.91991394 -277.15917969 286.43066406 C-277.14383179 285.65565552 -277.12848389 284.88064697 -277.1126709 284.08215332 C-276.45932139 252.89782903 -271.99264616 222.55014503 -260.5 193.3125 C-260.02916992 192.10291626 -260.02916992 192.10291626 -259.54882812 190.86889648 C-250.81416785 168.61167273 -239.73406733 148.85171081 -225.90307617 129.36352539 C-223.37157252 126.14869067 -223.37157252 126.14869067 -222.5 122.3125 C-221.84 122.3125 -221.18 122.3125 -220.5 122.3125 C-219.29216767 120.92667917 -219.29216767 120.92667917 -218.0625 119.0625 C-214.46811705 114.09379416 -210.3348514 109.68058311 -206.16796875 105.19921875 C-204.02090593 102.87611564 -201.93190952 100.5271251 -199.875 98.125 C-193.07195045 90.32007617 -185.66289182 83.65717759 -177.5 77.3125 C-175.97907826 76.06260757 -174.45824673 74.81260536 -172.9375 73.5625 C-161.75145122 64.62773148 -149.86509832 56.51958588 -137.5 49.3125 C-136.8395166 48.92352539 -136.1790332 48.53455078 -135.49853516 48.13378906 C-93.48314709 23.51832503 -45.23000465 13.0460265 3.1875 13.125 C3.93655609 13.12593658 4.68561218 13.12687317 5.45736694 13.12783813 C16.92866379 13.15882555 28.15439698 13.53935041 39.5 15.3125 C40.58055664 15.47379395 41.66111328 15.63508789 42.77441406 15.80126953 C71.63781657 20.17179015 98.28354923 28.46551709 124.5 41.3125 C125.97919922 41.99699219 125.97919922 41.99699219 127.48828125 42.6953125 C136.00766563 46.73020361 143.72939163 51.85656286 151.56982422 57.05078125 C154.05381846 58.67452047 156.58949186 60.20829013 159.125 61.75 C165.74400329 65.94471789 171.72559803 70.94313259 177.77197266 75.90917969 C179.22807378 77.0916704 180.7108381 78.24121808 182.19921875 79.3828125 C196.10471917 90.16666997 208.79022396 103.37634792 219.5 117.3125 C221.01833396 119.12709424 222.53924638 120.93953357 224.0625 122.75 C228.63428029 128.34566858 232.62406556 134.21953106 236.5 140.3125 C237.12390625 141.28445313 237.7478125 142.25640625 238.390625 143.2578125 C247.41514241 157.60165927 255.87042995 172.28753254 261.5 188.3125 C261.83741211 189.24884277 262.17482422 190.18518555 262.52246094 191.14990234 C272.57978432 219.22405265 279.37570153 248.41938774 280.5 278.3125 C280.53254883 278.95574219 280.56509766 279.59898437 280.59863281 280.26171875 C283.37628222 340.07938072 264.48606489 408.15832096 226.4609375 454.796875 C225.23226685 456.43568151 225.23226685 456.43568151 225.5 459.3125 C224.84 459.3125 224.18 459.3125 223.5 459.3125 C222.25185669 460.71928023 221.0769161 462.19129704 219.9375 463.6875 C214.03162316 471.25172994 207.69777774 478.35042395 200.71484375 484.9375 C199.2792952 486.25650187 199.2792952 486.25650187 199.5 488.3125 C198.90445312 488.57804687 198.30890625 488.84359375 197.6953125 489.1171875 C195.43670616 490.34696248 194.11255644 491.56024053 192.375 493.4375 C179.61589732 506.49083776 163.21510333 517.14535639 147.5 526.3125 C146.34894127 526.99606502 145.1979001 527.6796596 144.046875 528.36328125 C137.37795302 532.28476931 130.60067585 535.78028069 123.53125 538.9375 C119.98747392 540.54498606 116.54548922 542.31206686 113.109375 544.13671875 C110.06387314 545.50901824 106.96928831 546.52669282 103.79394531 547.5559082 C101.79479761 548.2152695 99.8168663 548.93828048 97.84375 549.671875 C87.73060725 553.38755793 77.39476116 555.82620659 66.875 558.0625 C65.84016479 558.28528625 65.84016479 558.28528625 64.78442383 558.51257324 C32.17333604 565.48517312 -2.42610774 566.64430182 -35.5 562.3125 C-36.39283691 562.2000293 -37.28567383 562.08755859 -38.20556641 561.97167969 C-47.90753533 560.73573839 -57.38739036 559.23426421 -66.8828125 556.87890625 C-70.22937187 556.15465086 -73.09673281 556.00311207 -76.5 556.3125 C-76.83 556.6425 -77.16 556.9725 -77.5 557.3125 C-77.21269945 559.65194736 -76.88063221 561.9864143 -76.5 564.3125 C-66.71212558 567.79631971 -56.81881012 570.38714808 -46.42578125 571.1015625 C-44.5 571.3125 -44.5 571.3125 -42.5 572.3125 C-37.7279598 572.99477069 -32.9234881 573.41968493 -28.125 573.875 C-27.40982208 573.94286713 -26.69464417 574.01073425 -25.95779419 574.08065796 C1.83369617 576.65802123 28.97329148 575.26641224 56.5 570.9375 C58.39552612 570.6422644 58.39552612 570.6422644 60.3293457 570.34106445 C69.24550592 568.87340535 77.81958281 566.7893158 86.5 564.3125 C87.68263428 563.97798828 87.68263428 563.97798828 88.88916016 563.63671875 C116.12801231 555.75052682 141.54018885 543.5148741 165.10693359 527.80371094 C165.77160645 527.36188477 166.4362793 526.92005859 167.12109375 526.46484375 C167.7030249 526.07288818 168.28495605 525.68093262 168.88452148 525.27709961 C170.5 524.3125 170.5 524.3125 173.5 523.3125 C174.61159618 522.16616644 175.72144441 521.01810394 176.82421875 519.86328125 C178.85259547 517.98620535 181.03541322 516.50449076 183.3125 514.9375 C189.99962173 510.18301996 195.79034538 504.56765827 201.703125 498.8984375 C204.1680842 496.53908788 206.67954636 494.27324034 209.28515625 492.0703125 C211.6050884 490.10618613 213.72472855 488.14363471 215.6875 485.8125 C216.26242187 485.13445312 216.83734375 484.45640625 217.4296875 483.7578125 C218.11289062 482.95085937 218.79609375 482.14390625 219.5 481.3125 C220.41772905 480.26687395 221.3371288 479.22271289 222.2578125 478.1796875 C227.52185145 472.18351281 232.57255093 466.09310801 237.25 459.625 C237.68030518 459.03702637 238.11061035 458.44905273 238.55395508 457.84326172 C240.99715973 454.42563474 240.99715973 454.42563474 241.5 450.3125 C242.49 449.9825 243.48 449.6525 244.5 449.3125 C245.89877151 447.50305285 245.89877151 447.50305285 247.13671875 445.21875 C247.62769043 444.361604 248.11866211 443.50445801 248.62451172 442.62133789 C249.14029785 441.69442139 249.65608398 440.76750488 250.1875 439.8125 C250.98824951 438.39022095 250.98824951 438.39022095 251.80517578 436.93920898 C256.45682522 428.58123627 260.66117957 420.07060357 264.5 411.3125 C264.95665039 410.28398926 265.41330078 409.25547852 265.88378906 408.19580078 C269.49848896 399.93643065 272.65504095 391.62070583 275.5 383.0625 C275.71277588 382.42408173 275.92555176 381.78566345 276.14477539 381.12789917 C286.06512224 351.18957732 289.68769458 321.77575016 289.68530273 290.34448242 C289.68748421 287.14813812 289.70569355 283.95214281 289.72460938 280.75585938 C289.77849666 262.40484582 288.58442341 244.8308009 284.15087891 226.99145508 C283.61934109 224.8522251 283.10703897 222.70905636 282.59765625 220.56445312 C274.59726358 187.24756044 260.54758873 155.17373 240.5 127.3125 C239.80132813 126.32378906 239.10265625 125.33507812 238.3828125 124.31640625 C223.03248228 102.99650317 204.44821746 82.283547 183.5 66.3125 C182.57058594 65.56613281 181.64117188 64.81976563 180.68359375 64.05078125 C164.46327978 51.18639431 146.86475039 39.56879803 128.125 30.75 C127.11348877 30.27038818 126.10197754 29.79077637 125.05981445 29.29663086 C118.27935452 26.10046365 111.47761169 23.05475019 104.5 20.3125 C103.7879541 20.0119873 103.0759082 19.71147461 102.34228516 19.40185547 C96.16443253 16.83312455 89.98445557 14.94081146 83.5 13.3125 C82.49453125 13.05686279 81.4890625 12.80122559 80.453125 12.5378418 C77.47115702 11.78596392 74.48622144 11.04727842 71.5 10.3125 C70.69433594 10.11092285 69.88867188 9.9093457 69.05859375 9.70166016 C56.339465 6.54676322 43.50988011 4.79943905 30.5 3.3125 C29.83246201 3.22965759 29.16492401 3.14681519 28.47715759 3.0614624 C23.20777783 2.43060887 18.00428319 2.11423141 12.69921875 2.0390625 C11.87679184 2.02667038 11.05436493 2.01427826 10.20701599 2.00151062 C7.53380167 1.96916862 4.86087765 1.95028486 2.1875 1.9375 C1.26958679 1.93293793 0.35167358 1.92837585 -0.59405518 1.92367554 C-14.00695943 1.90000348 -27.10151793 2.68823636 -40.375 4.625 Z " fill="#FC9710" transform="translate(502.5,213.6875)"/>
<path d="M0 0 C6.17729441 0.81300185 9.52826057 6.73636425 13.17578125 11.41796875 C18.16980733 17.99706366 22.97956768 24.76642717 26.17578125 32.41796875 C26.47226562 33.02898438 26.76875 33.64 27.07421875 34.26953125 C31.33487032 44.3934648 30.23256242 58.10133231 27.17578125 68.41796875 C27.96082031 68.70929688 28.74585938 69.000625 29.5546875 69.30078125 C40.10341668 73.41672711 46.86784349 78.24442137 52.17578125 88.41796875 C56.60219341 98.69737771 57.50294776 108.60868712 53.61328125 119.23046875 C53.13890625 120.28234375 52.66453125 121.33421875 52.17578125 122.41796875 C54.48578125 122.74796875 56.79578125 123.07796875 59.17578125 123.41796875 C64.07798457 114.33683802 67.3939229 105.20103522 69.57104492 95.1237793 C72.23621595 82.86941784 77.01721066 70.39134765 86.17578125 61.41796875 C91.3482529 59.99085735 91.3482529 59.99085735 94.11328125 61.41796875 C95.41714656 63.87230344 95.46170269 65.69008511 94.94921875 68.40625 C93.64985657 71.78590415 91.28103823 74.29473519 89.01171875 77.078125 C82.97432645 84.77258881 81.13496121 93.22665893 79.0546875 102.58789062 C77.68081561 108.65798497 75.89897056 114.20790642 73.3125 119.88671875 C71.62666941 123.64073327 70.41722838 127.4976094 69.17578125 131.41796875 C69.79453125 131.66546875 70.41328125 131.91296875 71.05078125 132.16796875 C73.52646812 133.62425514 74.12703127 134.79609381 75.17578125 137.41796875 C76.69945312 136.60392578 76.69945312 136.60392578 78.25390625 135.7734375 C91.45952075 128.84915129 103.56315549 123.92218586 118.65625 128.10546875 C124.5095665 130.30168801 130.00528197 133.34541914 135.55834961 136.19995117 C142.10139236 139.5055469 148.855177 142.19265535 155.70068359 144.80371094 C156.5148877 145.11727539 157.3290918 145.43083984 158.16796875 145.75390625 C158.8935498 146.0276709 159.61913086 146.30143555 160.36669922 146.58349609 C162.17578125 147.41796875 162.17578125 147.41796875 164.17578125 149.41796875 C163.98828125 152.41796875 163.98828125 152.41796875 163.17578125 155.41796875 C160.17578125 157.41796875 160.17578125 157.41796875 157.046875 157.265625 C152.4982253 156.26960383 148.49551645 154.70940487 144.23828125 152.85546875 C143.41287842 152.50339355 142.58747559 152.15131836 141.73706055 151.78857422 C135.56433464 149.11867935 129.53171284 146.21004693 123.60375977 143.03295898 C114.12090897 138.06380738 105.47336335 137.40600839 95.2421875 140.3515625 C89.69635998 142.28023882 84.44038744 144.83169957 79.17578125 147.41796875 C80.23330946 144.15905528 81.27143947 143.35940992 84.2578125 141.53125 C85.49520089 140.91851115 86.73900445 140.31858983 87.98828125 139.73046875 C88.60509766 139.42302734 89.22191406 139.11558594 89.85742188 138.79882812 C95.28033773 136.16516973 99.88297374 135.26378142 105.86328125 135.16796875 C107.29220703 135.12929688 107.29220703 135.12929688 108.75 135.08984375 C117.14755263 135.89417034 124.21454408 139.22101349 131.48828125 143.29296875 C145.07167285 151.01825883 145.07167285 151.01825883 160.17578125 153.41796875 C160.17578125 152.09796875 160.17578125 150.77796875 160.17578125 149.41796875 C158.41234375 148.86109375 158.41234375 148.86109375 156.61328125 148.29296875 C146.03608353 144.73413071 135.99787811 140.60240005 126.27490234 135.1340332 C117.14676296 130.04046556 107.20789442 128.47574829 96.97070312 130.95117188 C90.91805977 132.8064504 85.17256716 135.07406988 79.90234375 138.62109375 C77.17578125 140.41796875 77.17578125 140.41796875 74.17578125 140.41796875 C73.16226461 138.75948698 72.1645733 137.09130914 71.17578125 135.41796875 C68.60394811 133.14259183 68.60394811 133.14259183 66.17578125 131.41796875 C66.77227541 127.7178087 67.84154571 124.81917346 69.5234375 121.48046875 C73.06194126 113.89777918 74.6247312 105.93844947 76.40429688 97.80078125 C78.93877832 86.89952931 82.89557787 78.14899508 90.85546875 70.171875 C92.57672961 68.251234 92.57672961 68.251234 92.17578125 64.41796875 C89.82659532 63.99446077 89.82659532 63.99446077 87.17578125 64.41796875 C85.16929655 66.58732021 85.16929655 66.58732021 83.61328125 69.48046875 C82.71996094 71.00607422 82.71996094 71.00607422 81.80859375 72.5625 C81.26976562 73.50480469 80.7309375 74.44710937 80.17578125 75.41796875 C79.45390625 76.49046875 78.73203125 77.56296875 77.98828125 78.66796875 C74.30234342 85.23649899 73.11757319 93.43310036 71.3984375 100.70703125 C69.3313654 109.35521397 66.56376701 117.63926672 62.17578125 125.41796875 C59.03236132 126.98967871 55.61806674 126.64972658 52.17578125 126.41796875 C50.69078125 125.92296875 50.69078125 125.92296875 49.17578125 125.41796875 C49.5882521 121.98071163 50.02694206 118.83426228 51.1953125 115.56640625 C53.85479462 107.02639593 52.63991255 97.56015771 49.17578125 89.41796875 C45.19038912 82.37710932 40.31466314 78.10017562 32.98828125 74.79296875 C26.43682691 71.80953723 26.43682691 71.80953723 24.17578125 68.41796875 C24.41796875 65.88671875 24.41796875 65.88671875 25.05078125 62.91796875 C27.82963057 47.8068404 25.21949638 34.58672916 17.17578125 21.41796875 C13.60259674 16.54028831 9.80588073 11.99646795 5.4609375 7.7890625 C3.17578125 5.41796875 3.17578125 5.41796875 2.17578125 2.41796875 C0.85578125 2.74796875 -0.46421875 3.07796875 -1.82421875 3.41796875 C-1.54529544 8.1596651 0.52974149 10.0818533 3.8984375 13.0859375 C5.17578125 14.41796875 5.17578125 14.41796875 5.17578125 16.41796875 C5.83578125 16.41796875 6.49578125 16.41796875 7.17578125 16.41796875 C8.73076735 18.38721756 10.15242958 20.34132702 11.55078125 22.41796875 C11.95562744 23.01448242 12.36047363 23.61099609 12.77758789 24.22558594 C20.2781861 35.42413233 24.09203326 46.27445509 21.5234375 59.87109375 C20.65572389 63.25256995 19.71676468 66.28525094 18.17578125 69.41796875 C15.23828125 70.85546875 15.23828125 70.85546875 13.41796875 71.0078125 C10.17579988 71.60089217 7.724459 73.30561094 4.86328125 74.91796875 C-0.93317292 77.62739704 -0.93317292 77.62739704 -4.5 76.7890625 C-7.19683478 75.21053241 -9.44832313 73.44861704 -11.82421875 71.41796875 C-12.83484375 70.64066406 -13.84546875 69.86335937 -14.88671875 69.0625 C-17.62430365 66.92201589 -20.30525001 64.81242573 -22.82421875 62.41796875 C-22.82421875 61.75796875 -22.82421875 61.09796875 -22.82421875 60.41796875 C-23.48421875 60.41796875 -24.14421875 60.41796875 -24.82421875 60.41796875 C-30.18329743 54.75130498 -34.33819888 48.36298508 -37.82421875 41.41796875 C-38.35015625 40.41636719 -38.35015625 40.41636719 -38.88671875 39.39453125 C-40.25439628 36.51101113 -40.99646752 33.49247333 -41.82421875 30.41796875 C-42.81421875 30.41796875 -43.80421875 30.41796875 -44.82421875 30.41796875 C-44.53680933 31.79386492 -44.24404133 33.16864197 -43.94921875 34.54296875 C-43.78679687 35.30867187 -43.624375 36.074375 -43.45703125 36.86328125 C-38.94339554 55.0849958 -26.1522956 67.0661052 -11.171875 77.21484375 C-8.67059017 78.7220195 -8.67059017 78.7220195 -4.82421875 78.41796875 C-5.07983198 80.76109005 -5.41692647 83.09640278 -5.82421875 85.41796875 C-6.81421875 85.91296875 -6.81421875 85.91296875 -7.82421875 86.41796875 C-12.53857642 96.55211718 -12.79296094 106.58988669 -10.82421875 117.41796875 C-10.16421875 117.41796875 -9.50421875 117.41796875 -8.82421875 117.41796875 C-8.30859375 118.61421875 -7.79296875 119.81046875 -7.26171875 121.04296875 C-3.66794821 128.19254747 1.85168057 131.70533887 9.17578125 134.41796875 C9.94019531 134.76988281 10.70460938 135.12179687 11.4921875 135.484375 C14.64122649 136.5798922 17.1597449 136.64931773 20.48828125 136.60546875 C21.63039063 136.59386719 22.7725 136.58226562 23.94921875 136.5703125 C26.59553529 136.44536535 29.01896544 136.15377692 31.61328125 135.66796875 C36.29236449 135.33961203 37.63906693 136.50017944 41.17578125 139.41796875 C40.68078125 145.85296875 40.68078125 145.85296875 40.17578125 152.41796875 C33.53342149 154.7486213 26.91458643 155.00620122 19.92578125 155.41796875 C9.96694745 156.06303618 0.06111693 156.86725777 -9.85546875 157.98046875 C-14.19546453 158.45889348 -18.53731083 158.83909435 -22.890625 159.171875 C-24.90334625 159.3197368 -24.90334625 159.3197368 -26.82421875 160.41796875 C-27.47635167 162.4426013 -27.47635167 162.4426013 -27.82421875 164.41796875 C-26.36598663 164.44497305 -24.907612 164.46436662 -23.44921875 164.48046875 C-22.23105469 164.49787109 -22.23105469 164.49787109 -20.98828125 164.515625 C-18.77484733 164.56263209 -18.77484733 164.56263209 -16.82421875 163.41796875 C-6.16318749 161.68482296 4.66114669 161.02957315 15.42578125 160.29296875 C16.6797168 160.20539307 17.93365234 160.11781738 19.22558594 160.02758789 C27.22112722 159.50593398 35.16404284 159.31197557 43.17578125 159.41796875 C43.17578125 159.74796875 43.17578125 160.07796875 43.17578125 160.41796875 C36.52494793 162.04729107 30.08219627 162.92693952 23.26171875 163.453125 C21.74090195 163.57849892 21.74090195 163.57849892 20.18936157 163.70640564 C16.97694696 163.97029504 13.76394039 164.2258201 10.55078125 164.48046875 C7.33061907 164.74013592 4.11061662 165.00159969 0.89077759 165.26524353 C-1.10463484 165.42816696 -3.10025366 165.58858831 -5.09609985 165.74610901 C-10.04129678 166.14519901 -14.92074419 166.66352624 -19.82421875 167.41796875 C-26.87988181 168.14010876 -26.87988181 168.14010876 -29.94921875 165.79296875 C-30.82421875 163.41796875 -30.82421875 163.41796875 -30.51171875 160.29296875 C-28.82421875 157.41796875 -28.82421875 157.41796875 -25.56054688 156.31884766 C-19.5677485 155.0111909 -13.4579774 154.62135901 -7.35546875 154.12890625 C-6.07941772 154.02075592 -4.8033667 153.91260559 -3.48864746 153.80117798 C-0.12222103 153.51703294 3.24457299 153.23853255 6.61169434 152.96282959 C10.05793818 152.67922628 13.50354681 152.38811099 16.94921875 152.09765625 C23.69084619 151.5308873 30.43305963 150.9715601 37.17578125 150.41796875 C37.17578125 147.11796875 37.17578125 143.81796875 37.17578125 140.41796875 C36.51578125 140.08796875 35.85578125 139.75796875 35.17578125 139.41796875 C35.17578125 138.75796875 35.17578125 138.09796875 35.17578125 137.41796875 C34.47453125 137.72992187 33.77328125 138.041875 33.05078125 138.36328125 C23.24494534 141.96053084 13.55249915 140.53973983 4.17578125 136.41796875 C1.15786937 134.71568568 -1.31494685 132.80011895 -3.82421875 130.41796875 C-4.45070312 129.83144531 -5.0771875 129.24492188 -5.72265625 128.640625 C-13.3324682 120.78999622 -15.38206994 111.99052069 -15.31030273 101.27832031 C-15.10873455 96.13740697 -14.00088771 92.00496405 -11.69921875 87.43359375 C-10.55874807 85.17266392 -10.55874807 85.17266392 -10.82421875 81.41796875 C-12.88496802 79.5065178 -12.88496802 79.5065178 -15.63671875 77.79296875 C-31.34006865 66.84698801 -44.28740709 52.29559097 -48.55078125 33.15625 C-48.82421875 30.41796875 -48.82421875 30.41796875 -47.69921875 28.04296875 C-45.82421875 26.41796875 -45.82421875 26.41796875 -43.32421875 25.91796875 C-40.82421875 26.41796875 -40.82421875 26.41796875 -39.3046875 28.0390625 C-37.50918504 30.92418387 -36.64120032 33.73494167 -35.63671875 36.98046875 C-30.594645 51.48960037 -18.43526632 65.12562647 -4.82421875 72.41796875 C-0.88073258 72.84226789 1.69522931 72.52298192 5.11328125 70.54296875 C8.75136305 68.56620754 12.16401347 67.4209107 16.17578125 66.41796875 C19.89356743 55.03224857 19.44119888 43.18134611 14.17578125 32.41796875 C13.79808594 31.62390625 13.42039062 30.82984375 13.03125 30.01171875 C9.55001263 23.53304136 4.73579537 18.50177554 -0.50561523 13.41479492 C-4.7071585 9.17795991 -4.7071585 9.17795991 -5.33203125 5.12109375 C-4.62634684 1.36468137 -3.78214608 0.55973669 0 0 Z " fill="#FC9811" transform="translate(250.82421875,530.58203125)"/>
<path d="M0 0 C18.11813508 -0.78114115 30.56849164 3.72920935 46 13 C46 13.66 46 14.32 46 15 C46.55945313 15.22816406 47.11890625 15.45632813 47.6953125 15.69140625 C58.86998935 22.03634988 65.67924095 36.11944645 69.3046875 47.89453125 C71.79324045 59.0091357 69.65274389 68.45025233 64.1875 78.25 C57.69373756 86.41358706 49.64063256 93.1161526 39 95 C24.10966229 96.27751139 10.59061643 91.76443508 -1.10546875 82.5546875 C-7.80556074 76.84670258 -12.76293871 70.77191299 -17 63 C-17.39703125 62.31292969 -17.7940625 61.62585938 -18.203125 60.91796875 C-24.37386912 49.61261292 -25.18841093 37.27123029 -24.87304688 24.67578125 C-24.85661133 23.45181641 -24.85661133 23.45181641 -24.83984375 22.203125 C-24.82300537 21.46739258 -24.80616699 20.73166016 -24.78881836 19.97363281 C-24.88043095 17.67774159 -24.88043095 17.67774159 -27 15 C-29.44128596 14.46845117 -29.44128596 14.46845117 -32 15 C-34.8130603 17.21822817 -36.83118633 20.16208424 -39 23 C-39.62648438 23.78246094 -40.25296875 24.56492187 -40.8984375 25.37109375 C-47.26548469 33.76646189 -49.88030992 41.95307337 -48.65234375 52.48046875 C-47.00885404 61.34744017 -44.49899936 70.0506723 -41.88671875 78.67578125 C-39.71977213 86.79944458 -38.81294624 96.0323656 -42 104 C-43.8125 106.625 -43.8125 106.625 -46 108 C-48.625 107.9375 -48.625 107.9375 -51 107 C-53 104 -53 104 -52.64453125 101.21484375 C-52.32548828 99.62349609 -52.32548828 99.62349609 -52 98 C-51.12807088 86.57915787 -53.54092884 76.93317741 -56.8984375 66.1015625 C-60.670309 53.36682802 -61.36502202 40.76581198 -55.84765625 28.421875 C-52.915467 23.15243346 -49.13740153 18.51520948 -45.3125 13.875 C-44.83683594 13.29363281 -44.36117188 12.71226562 -43.87109375 12.11328125 C-42.6491978 10.68083261 -41.33029661 9.33238499 -40 8 C-39.01 8 -38.02 8 -37 8 C-39.05425172 12.94413127 -42.94355501 16.33567608 -46.58984375 20.1484375 C-48.97796099 22.97392467 -50.49616512 25.63498335 -52 29 C-52.66 29 -53.32 29 -54 29 C-58.69444481 46.81374148 -54.72706863 63.16159698 -49.34765625 80.28515625 C-48.27546093 83.81935281 -47.63473462 86.90192815 -47.75 90.625 C-47.77578125 91.53121094 -47.8015625 92.43742188 -47.828125 93.37109375 C-48.06205878 96.94921732 -48.46480062 100.45430412 -49 104 C-47.68 104.33 -46.36 104.66 -45 105 C-41.30881168 93.92643505 -44.04783742 79.80001003 -48.203125 69.2421875 C-52.09208773 58.29971395 -54.59352003 45.06620734 -50 34 C-46.65293048 27.24913097 -42.5029513 22.16248235 -37.05859375 16.984375 C-34.80768062 14.81461434 -32.86235712 12.51013351 -31 10 C-27.07417129 11.30860957 -24.6012063 12.74849213 -22 16 C-20.74143704 20.08634684 -20.97304502 24.12193902 -21.06640625 28.34692383 C-21.39823035 44.07953391 -17.73917872 55.39402451 -10 69 C-9.46503906 69.52400391 -8.93007813 70.04800781 -8.37890625 70.58789062 C-7 72 -7 72 -7 74 C-6.34 74 -5.68 74 -5 74 C-4.505 74.680625 -4.01 75.36125 -3.5 76.0625 C3.63754676 84.44911744 14.29493725 89.94148271 25.22460938 91.27050781 C35.2301127 92.02365546 44.87167955 91.70286863 53.1328125 85.36328125 C55 84 55 84 57 84 C57.2475 83.46375 57.495 82.9275 57.75 82.375 C59 80 59 80 60.9375 77.375 C66.31521489 68.57510291 67.09230165 59.15320394 66 49 C64.01451406 41.09335376 60.4629866 34.57993582 55.55078125 28.12109375 C54 26 54 26 52.98046875 23.78515625 C52.06830698 21.64538728 52.06830698 21.64538728 49 21 C47.31126121 19.35570171 45.64694485 17.68615782 44 16 C41.06745825 13.42508529 38.91219743 11.5795848 35 11 C35 10.34 35 9.68 35 9 C34.41992188 8.80664062 33.83984375 8.61328125 33.2421875 8.4140625 C26 6 26 6 23.23828125 4.9609375 C18.55520333 3.57126661 13.86303219 3.23403354 9.01367188 2.7890625 C5.29826043 2.40866733 3.16273259 2.10848839 0 0 Z " fill="#FC9710" transform="translate(333,685)"/>
<path d="M0 0 C0.66 0.33 1.32 0.66 2 1 C2 1.66 2 2.32 2 3 C2.32205743 5.33491639 2.65458149 7.66842508 3 10 C3.99 10.33 4.98 10.66 6 11 C4.35 11.33 2.7 11.66 1 12 C-2.0656304 5.62348877 -2.0656304 5.62348877 -1.75 2.625 C-1 1 -1 1 0 0 Z " fill="#FDA221" transform="translate(330,674)"/>
<path d="M0 0 C1.4540625 0.0309375 1.4540625 0.0309375 2.9375 0.0625 C2.9375 0.3925 2.9375 0.7225 2.9375 1.0625 C1.2875 1.3925 -0.3625 1.7225 -2.0625 2.0625 C-2.2790625 3.733125 -2.2790625 3.733125 -2.5 5.4375 C-3.0625 9.0625 -3.0625 9.0625 -4.0625 11.0625 C-6.27251616 5.66023829 -6.27251616 5.66023829 -5.25 2.75 C-3.3631135 0.06863497 -3.3631135 0.06863497 0 0 Z " fill="#FA9C1B" transform="translate(429.0625,766.9375)"/>
<path d="M0 0 C4.75 0.75 4.75 0.75 7 3 C7 4.32 7 5.64 7 7 C6.01 7 5.02 7 4 7 C3.566875 5.824375 3.566875 5.824375 3.125 4.625 C2.15087746 1.90328368 2.15087746 1.90328368 0 0 Z " fill="#F28C0F" transform="translate(408,677)"/>
<path d="M0 0 C4.75 0.75 4.75 0.75 7 3 C7.125 5.625 7.125 5.625 7 8 C6.1028125 6.7934375 6.1028125 6.7934375 5.1875 5.5625 C3.19052724 2.77672016 3.19052724 2.77672016 0 2 C0 1.34 0 0.68 0 0 Z " fill="#F28F10" transform="translate(339,591)"/>
<path d="M0 0 C3 1 3 1 3 1 Z " fill="#F19D28" transform="translate(476,791)"/>
<path d="M0 0 C0.66 0 1.32 0 2 0 C1.67 0.66 1.34 1.32 1 2 C0.67 1.34 0.34 0.68 0 0 Z " fill="#FBA52C" transform="translate(257,669)"/>
<path d="M0 0 C2 1 2 1 2 1 Z " fill="#F19F2A" transform="translate(361,781)"/>
<path d="M0 0 C2 1 2 1 2 1 Z " fill="#F4A22C" transform="translate(617,752)"/>
<path d="M0 0 C2 1 2 1 2 1 Z " fill="#FCA42C" transform="translate(276,694)"/>
<path d="M0 0 C2 1 2 1 2 1 Z " fill="#FCA528" transform="translate(289,693)"/>
<path d="M0 0 C2 1 2 1 2 1 Z " fill="#FBA62C" transform="translate(281,680)"/>
<path d="M0 0 C2 1 2 1 2 1 Z " fill="#FBA42C" transform="translate(347,671)"/>
<path d="" fill="#F29D28" transform="translate(0,0)"/>
<path d="" fill="#F59F2B" transform="translate(0,0)"/>
<path d="" fill="#EF9D29" transform="translate(0,0)"/>
<path d="" fill="#F09E27" transform="translate(0,0)"/>
<path d="" fill="#EF9B2A" transform="translate(0,0)"/>
<path d="" fill="#F19E29" transform="translate(0,0)"/>
<path d="" fill="#F39F2A" transform="translate(0,0)"/>
<path d="" fill="#F6A02B" transform="translate(0,0)"/>
<path d="" fill="#F7A32C" transform="translate(0,0)"/>
<path d="" fill="#F39D29" transform="translate(0,0)"/>
<path d="" fill="#EF9C28" transform="translate(0,0)"/>
<path d="" fill="#F3A12C" transform="translate(0,0)"/>
<path d="" fill="#FDA52B" transform="translate(0,0)"/>
<path d="" fill="#FDA62F" transform="translate(0,0)"/>
<path d="" fill="#FAA62D" transform="translate(0,0)"/>
<path d="" fill="#F4A12C" transform="translate(0,0)"/>
<path d="" fill="#F09E28" transform="translate(0,0)"/>
<path d="" fill="#FAA62E" transform="translate(0,0)"/>
<path d="" fill="#FFAA2C" transform="translate(0,0)"/>
<path d="" fill="#FDA62B" transform="translate(0,0)"/>
<path d="" fill="#F5A22E" transform="translate(0,0)"/>
<path d="" fill="#F49F2D" transform="translate(0,0)"/>
<path d="" fill="#DA8E2C" transform="translate(0,0)"/>
<path d="" fill="#F9A22A" transform="translate(0,0)"/>
<path d="" fill="#FCA42B" transform="translate(0,0)"/>
<path d="" fill="#FEA32A" transform="translate(0,0)"/>
<path d="" fill="#FCA72B" transform="translate(0,0)"/>
<path d="" fill="#F4A12B" transform="translate(0,0)"/>
<path d="" fill="#FCA82D" transform="translate(0,0)"/>
<path d="" fill="#F59F2C" transform="translate(0,0)"/>
<path d="" fill="#F4A12B" transform="translate(0,0)"/>
<path d="" fill="#FDA52A" transform="translate(0,0)"/>
<path d="" fill="#F4A02F" transform="translate(0,0)"/>
<path d="" fill="#F39F2E" transform="translate(0,0)"/>
<path d="" fill="#F19E2B" transform="translate(0,0)"/>
<path d="" fill="#F69C23" transform="translate(0,0)"/>
<path d="" fill="#F5A12B" transform="translate(0,0)"/>
<path d="" fill="#DE9529" transform="translate(0,0)"/>
<path d="" fill="#E09327" transform="translate(0,0)"/>
<path d="" fill="#F3A030" transform="translate(0,0)"/>
<path d="" fill="#E4982E" transform="translate(0,0)"/>
<path d="" fill="#EF9C2A" transform="translate(0,0)"/>
<path d="" fill="#F7A22A" transform="translate(0,0)"/>
<path d="" fill="#EE9E2D" transform="translate(0,0)"/>
<path d="" fill="#F29D2B" transform="translate(0,0)"/>
<path d="" fill="#ED9D2E" transform="translate(0,0)"/>
<path d="" fill="#F19F2C" transform="translate(0,0)"/>
<path d="" fill="#F29F2C" transform="translate(0,0)"/>
<path d="" fill="#EF9F2E" transform="translate(0,0)"/>
<path d="" fill="#F29F2A" transform="translate(0,0)"/>
<path d="" fill="#F29F2A" transform="translate(0,0)"/>
<path d="" fill="#F29F2A" transform="translate(0,0)"/>
<path d="" fill="#F39E2A" transform="translate(0,0)"/>
<path d="" fill="#EA9B29" transform="translate(0,0)"/>
<path d="" fill="#EC9D2D" transform="translate(0,0)"/>
<path d="" fill="#F6A12A" transform="translate(0,0)"/>
<path d="" fill="#F3A32C" transform="translate(0,0)"/>
<path d="" fill="#F4A02A" transform="translate(0,0)"/>
<path d="" fill="#F4A22A" transform="translate(0,0)"/>
<path d="" fill="#F49E29" transform="translate(0,0)"/>
<path d="" fill="#F69F2C" transform="translate(0,0)"/>
<path d="" fill="#F4A029" transform="translate(0,0)"/>
<path d="" fill="#EF9E28" transform="translate(0,0)"/>
<path d="" fill="#EC9D2C" transform="translate(0,0)"/>
<path d="" fill="#F59F29" transform="translate(0,0)"/>
<path d="" fill="#F5A12B" transform="translate(0,0)"/>
<path d="" fill="#EC9C2C" transform="translate(0,0)"/>
<path d="" fill="#F29F2B" transform="translate(0,0)"/>
<path d="" fill="#F7A126" transform="translate(0,0)"/>
<path d="" fill="#F5A12B" transform="translate(0,0)"/>
<path d="" fill="#EC9C2A" transform="translate(0,0)"/>
<path d="" fill="#F79E2A" transform="translate(0,0)"/>
<path d="" fill="#F6A02D" transform="translate(0,0)"/>
<path d="" fill="#F6A22A" transform="translate(0,0)"/>
<path d="" fill="#F6A02A" transform="translate(0,0)"/>
<path d="" fill="#F7A22B" transform="translate(0,0)"/>
<path d="" fill="#F09D2A" transform="translate(0,0)"/>
<path d="" fill="#EE9C2A" transform="translate(0,0)"/>
</svg>
